<svg id="Layer_2" enable-background="new 0 0 64 64" height="512" viewBox="0 0 64 64" width="512" xmlns="http://www.w3.org/2000/svg"><path d="m11.5 2h41v56h-41z" fill="#edeff1"/><g fill="#6e83b7"><path d="m38.5 18h-7v-12h2v10h5z"/><path d="m23.5 9c0-1.654-1.346-3-3-3h-5v12h5c1.654 0 3-1.346 3-3v-1c0-.771-.301-1.468-.78-2 .48-.532.78-1.229.78-2zm-6-1h3c.551 0 1 .449 1 1v1c0 .551-.449 1-1 1h-3zm4 7c0 .551-.449 1-1 1h-3v-3h3c.551 0 1 .449 1 1z"/><path d="m26.5 6h2v12h-2z"/><path d="m48.5 18h-7v-12h2v10h5z"/></g><path d="m15.5 21h33v2h-33z" fill="#d3d3d3"/><path d="m15.5 27h33v2h-33z" fill="#d3d3d3"/><path d="m7 36h50v26h-50z" fill="#98ca69"/><circle cx="32" cy="49" fill="#75aa40" r="8"/><path d="m48.791 39.5c.673 2.254 2.455 4.036 4.709 4.709v9.582c-2.254.673-4.036 2.455-4.709 4.709h-33.582c-.673-2.254-2.455-4.036-4.709-4.709v-9.582c2.254-.673 4.036-2.455 4.709-4.709zm1.709-2h-37c0 2.761-2.239 5-5 5v13c2.761 0 5 2.239 5 5h37c0-2.761 2.239-5 5-5v-13c-2.761 0-5-2.239-5-5z" fill="#75aa40"/><path d="m33 48h-2c-.551 0-1-.449-1-1s.449-1 1-1h2c.551 0 1 .449 1 1h2c0-1.654-1.346-3-3-3v-1h-2v1c-1.654 0-3 1.346-3 3s1.346 3 3 3h2c.551 0 1 .449 1 1s-.449 1-1 1h-2c-.551 0-1-.449-1-1h-2c0 1.654 1.346 3 3 3v1h2v-1c1.654 0 3-1.346 3-3s-1.346-3-3-3z" fill="#98ca69"/></svg>