<svg height="512pt" viewBox="0 -66 512.0035 512" width="512pt" xmlns="http://www.w3.org/2000/svg"><path d="m156.800781 325c0 27.394531-22.207031 49.601562-49.601562 49.601562-27.390625 0-49.597657-22.207031-49.597657-49.601562 0-27.390625 22.207032-49.597656 49.597657-49.597656 27.394531 0 49.601562 22.207031 49.601562 49.597656zm0 0" fill="#6d6c6b"/><path d="m464.800781 325c0 27.394531-22.207031 49.601562-49.601562 49.601562-27.390625 0-49.597657-22.207031-49.597657-49.601562 0-27.390625 22.207032-49.597656 49.597657-49.597656 27.394531 0 49.601562 22.207031 49.601562 49.597656zm0 0" fill="#6d6c6b"/><g fill="#e9e9ea"><path d="m131.601562 325c0 13.699219-11.105468 24.800781-24.800781 24.800781-13.699219 0-24.800781-11.101562-24.800781-24.800781 0-13.695312 11.101562-24.796875 24.800781-24.796875 13.695313 0 24.800781 11.101563 24.800781 24.796875zm0 0"/><path d="m439.601562 325c0 13.699219-11.105468 24.800781-24.800781 24.800781-13.699219 0-24.800781-11.101562-24.800781-24.800781 0-13.695312 11.101562-24.796875 24.800781-24.796875 13.695313 0 24.800781 11.101563 24.800781 24.796875zm0 0"/><path d="m155.398438 337.402344h211.800781c-2.398438-9-2-18.601563.800781-27.402344h-213.398438c2.796876 8.800781 3 18.402344.796876 27.402344zm0 0"/><path d="m57.601562 325c0-5 .796876-10.199219 2.398438-15h-41.199219c-7.601562 0-13.800781 6.203125-13.800781 13.800781 0 7.601563 6.199219 13.800781 13.800781 13.800781h40.597657c-1.199219-4.199218-1.796876-8.398437-1.796876-12.601562zm0 0"/><path d="m493.199219 310h-30.800781c2.800781 8.800781 3 18.402344.800781 27.402344h30c7.601562 0 13.800781-6.199219 13.800781-13.800782 0-7.398437-6.199219-13.601562-13.800781-13.601562zm0 0"/></g><path d="m18.800781 310h41.199219c8.199219-26.199219 36.199219-40.597656 62.199219-32.398438 15.402343 4.800782 27.402343 17 32.402343 32.398438h213.398438c8.199219-26.199219 36.199219-40.597656 62.199219-32.398438 15.402343 4.800782 27.402343 17 32.402343 32.398438h30.796876c2.601562 0 5.203124.800781 7.402343 2.203125v-101.203125c0-9.597656-3-19-8.800781-26.796875l-17.800781-24.402344c-8.597657-11.597656-22.199219-18.597656-36.597657-18.597656h-212.800781c-11.199219 0-22 4-30.402343 11l-54.597657 45.597656c-7.402343 6.199219-21 8.402344-31.601562 9.601563l-55 9.597656c-.800781 0-1.800781 0-2.597657 0 4.199219 5 7 14 7 24.203125 0 15.796875-6.601562 28.398437-14.800781 28.398437s-14.800781-12.800781-14.800781-28.398437c0-6 1-12 3.199219-17.601563-11.199219 7.398438-18 19.800782-18 33.199219v54c2-.398437 3.601562-.800781 5.601562-.800781zm0 0" fill="#ea4647"/><path d="m57.800781 241.402344c0-15.683594-6.628906-28.402344-14.800781-28.402344s-14.800781 12.71875-14.800781 28.402344 6.628906 28.398437 14.800781 28.398437 14.800781-12.714843 14.800781-28.398437zm0 0" fill="#acdef9"/><path d="m479.601562 265.800781c0 11.601563 9.398438 21 21 21v-42.199219c-11.601562 0-21 9.398438-21 21.199219zm0 0" fill="#ffae2c"/><path d="m460.199219 196.601562-17.800781-24.398437c-4.597657-6.203125-11.796876-10-19.597657-10h-6.601562v57h48.601562v-8.402344c0-5-1.601562-10-4.601562-14.199219zm0 0" fill="#acdef9"/><path d="m298.199219 162.402344h97v57h-97zm0 0" fill="#acdef9"/><path d="m190.601562 219.402344h86.597657v-57h-52.398438c-6.199219 0-12.199219 2.199218-17 6.199218l-35.402343 29.601563h1.601562c9.199219 0 16.601562 7.398437 16.601562 16.597656v2.601563zm0 0" fill="#acdef9"/><path d="m156.601562 198.203125h17.398438c9.199219 0 16.601562 7.398437 16.601562 16.597656v2.601563c0 9.199218-7.402343 16.597656-16.601562 16.597656h-17.398438c-9.203124 0-16.601562-7.398438-16.601562-16.597656v-2.601563c0-9.199219 7.398438-16.597656 16.601562-16.597656zm0 0" fill="#6d6c6b"/><path d="m249.601562 30.601562h97.398438c4.601562 0 8.199219 3.601563 8.199219 8.199219v77.199219c0 4.601562-3.597657 8.203125-8.199219 8.203125h-97.398438c-4.601562 0-8.203124-3.601563-8.203124-8.203125v-77.199219c0-4.597656 3.601562-8.199219 8.203124-8.199219zm0 0" fill="#b26e3b"/><path d="m363.199219 53.800781h52c4.601562 0 8.199219 3.601563 8.199219 8.199219v54c0 4.601562-3.597657 8.203125-8.199219 8.203125h-52c-4.597657 0-8.199219-3.601563-8.199219-8.203125v-54c0-4.597656 3.800781-8.199219 8.199219-8.199219zm0 0" fill="#ffae2c"/><path d="m507 71.800781h-3.601562v-3.597656c0-2.800781-2.199219-5-5-5-2.796876 0-5 2.199219-5 5v3.597656h-3.597657c-2.800781 0-5 2.199219-5 5s2.199219 5 5 5h3.597657v3.601563c0 2.800781 2.203124 5 5 5 2.800781 0 5-2.199219 5-5v-3.601563h3.601562c2.800781 0 5-2.199219 5-5s-2.199219-5-5-5zm0 0" fill="#ea4647"/><path d="m111.601562 171.800781c0-.398437-.203124-.597656-.203124-1-.199219-.199219-.199219-.597656-.398438-.800781-.199219-.199219-.398438-.597656-.601562-.796875-2-1.800781-5-1.800781-7 0-.199219.199219-.398438.398437-.597657.796875-.402343.601562-.601562 1.203125-.800781 1.800781-.199219.601563-.199219 1.402344 0 2 0 .402344.199219.601563.199219 1 .199219.402344.199219.601563.402343.800781.199219.199219.398438.601563.597657.800782 2 2 5 2 7 0 .199219-.199219.402343-.402344.601562-.800782.199219-.199218.398438-.601562.398438-.800781.199219-.199219.199219-.597656.199219-1 .402343-.800781.402343-1.398437.203124-2zm0 0" fill="#55acd5"/><path d="m461.601562 37.800781c0-.398437-.203124-.597656-.203124-1-.199219-.199219-.199219-.597656-.398438-.800781-.199219-.199219-.398438-.597656-.601562-.796875-2-1.800781-5-1.800781-7 0-.199219.199219-.398438.398437-.597657.796875-.402343.601562-.601562 1.203125-.800781 1.800781-.199219.601563-.199219 1.402344 0 2 0 .402344.199219.601563.199219 1 .199219.402344.199219.601563.402343.800781.199219.199219.398438.601563.597657.800782 2 2 5 2 7 0 .199219-.199219.402343-.402344.601562-.800782.199219-.199218.398438-.601562.398438-.800781.199219-.199219.199219-.597656.199219-1 .402343-.800781.402343-1.398437.203124-2zm0 0" fill="#ffcd29"/><path d="m67.601562 151.800781c-8-1.597656-14.203124-7.800781-15.800781-15.800781 0-.199219-.199219-.398438-.402343-.199219-.199219 0-.199219.199219-.199219.199219-1.597657 8-7.800781 14.203125-15.800781 15.800781-.199219 0-.398438.199219-.199219.402344 0 .199219.199219.199219.199219.199219 8 1.597656 14.203124 7.800781 15.800781 15.800781 0 .199219.199219.398437.402343.199219.199219 0 .199219-.199219.199219-.199219 1.597657-8 7.800781-14.203125 15.800781-15.800781.199219 0 .398438-.199219.199219-.402344.199219 0 0 0-.199219-.199219zm0 0" fill="#6dcc6d"/><path d="m107.199219 379.601562c-30.199219 0-54.597657-24.398437-54.597657-54.601562 0-30.199219 24.398438-54.597656 54.597657-54.597656s54.601562 24.398437 54.601562 54.597656c0 30.203125-24.402343 54.601562-54.601562 54.601562zm0-99.199218c-24.597657 0-44.597657 20-44.597657 44.597656 0 24.601562 20 44.601562 44.597657 44.601562 24.601562 0 44.601562-20 44.601562-44.601562 0-24.597656-19.800781-44.597656-44.601562-44.597656zm0 0"/><path d="m415.199219 379.601562c-30.199219 0-54.597657-24.398437-54.597657-54.601562 0-30.199219 24.398438-54.597656 54.597657-54.597656s54.601562 24.398437 54.601562 54.597656c0 30.203125-24.402343 54.601562-54.601562 54.601562zm0-99.199218c-24.597657 0-44.597657 20-44.597657 44.597656 0 24.601562 20 44.601562 44.597657 44.601562 24.601562 0 44.601562-20 44.601562-44.601562 0-24.597656-20-44.597656-44.601562-44.597656zm0 0"/><path d="m500.601562 317.203125c-1 0-1.800781-.203125-2.800781-.800781-1.402343-.800782-3-1.402344-4.601562-1.402344h-30.800781c-2.199219 0-4.199219-1.398438-4.796876-3.398438-7.402343-23.398437-32.601562-36.601562-56-29-13.800781 4.398438-24.601562 15.199219-29 29-.601562 2-2.601562 3.398438-4.800781 3.398438h-213.199219c-2.203124 0-4.203124-1.398438-4.800781-3.398438-7.402343-23.398437-32.601562-36.601562-56-29-13.800781 4.398438-24.601562 15.199219-29 29-.601562 2-2.601562 3.398438-4.800781 3.601563h-41.199219c-1.199219 0-2.199219.199219-3.402343.597656-2.597657 1-5.398438-.199219-6.597657-2.597656-.199219-.601563-.402343-1.203125-.402343-2v-54c0-15 7.601562-29.203125 20.203124-37.402344 2.398438-1.597656 5.398438-.800781 7 1.402344 1 1.398437 1 3.199219.398438 4.597656-2 5-2.800781 10.402344-2.800781 15.800781 0 14.398438 5.800781 23.398438 9.800781 23.398438s9.800781-9.199219 9.800781-23.398438c0-8.601562-2.199219-16.601562-5.800781-21-1.800781-2.199218-1.398438-5.199218.601562-7 .796876-.601562 1.796876-1 2.796876-1.199218h2.402343l54.398438-9.601563h.199219c7.203124-.800781 22.203124-2.800781 29-8.597656l54.402343-45.601563c9.398438-8 21.398438-12.199218 33.597657-12.199218h212.800781c16 0 31.199219 7.597656 40.601562 20.597656l17.800781 24.402344c6.398438 8.597656 9.796876 19 9.597657 29.597656v101.203125c.402343 2.796875-1.800781 5-4.597657 5zm-34.601562-12.203125h27.199219c.800781 0 1.601562 0 2.402343.203125v-94.203125c0-8.597656-2.800781-16.796875-7.800781-23.796875l-17.800781-24.402344c-7.601562-10.398437-19.601562-16.597656-32.601562-16.597656h-212.597657c-10 0-19.601562 3.597656-27.199219 10l-54.601562 45.597656c-8 6.800781-21.199219 9.199219-34.199219 10.800781l-50 8.800782c2.597657 6.398437 4 13.199218 3.800781 20.199218 0 19-8.402343 33.398438-19.800781 33.398438-11.402343 0-19.800781-14.398438-19.800781-33.398438 0-.601562 0-1.398437 0-2-3.199219 5.398438-4.800781 11.398438-4.800781 17.601563v48h38c11-28 42.800781-41.800781 70.800781-30.800781 14.199219 5.597656 25.398438 16.800781 30.800781 30.800781h206.199219c11-28 42.800781-41.800781 70.800781-30.800781 14.597657 5.199218 25.800781 16.398437 31.199219 30.597656zm0 0"/><path d="m367.199219 342.402344h-211.800781c-2.796876 0-5-2.199219-5-5 0-.402344 0-.800782.203124-1.199219 2-8.203125 1.796876-16.601563-.601562-24.601563-.800781-2.601562.601562-5.398437 3.199219-6.199218.402343-.199219 1-.199219 1.601562-.199219h213.199219c2.800781 0 5 2.199219 5 5 0 .597656 0 1-.199219 1.597656-2.601562 8-2.800781 16.601563-.601562 24.601563.601562 2.597656-1 5.398437-3.597657 6-.601562 0-1 0-1.402343 0zm-205.800781-10h199.800781c-.800781-5.800782-.597657-11.601563.402343-17.402344h-200.601562c1 5.800781 1.199219 11.601562.398438 17.402344zm0 0"/><path d="m59.199219 342.402344h-40.398438c-10.402343 0-18.800781-8.402344-18.800781-18.800782 0-10.398437 8.398438-18.800781 18.800781-18.800781h41.199219c2.800781 0 5 2.199219 5 5 0 .601563 0 1-.199219 1.601563-2.601562 8-2.800781 16.597656-.601562 24.597656.601562 2.601562-1 5.402344-3.597657 6-.402343.402344-1 .402344-1.402343.402344zm-40.398438-27.402344c-4.800781 0-8.800781 3.800781-8.800781 8.800781 0 4.800781 3.800781 8.800781 8.800781 8.800781h34.398438c-.800781-5.800781-.597657-11.601562.402343-17.398437h-34.800781zm0 0"/><path d="m493.199219 342.402344h-30c-2.800781 0-5-2.199219-5-5 0-.402344 0-.800782.199219-1.199219 2-8.203125 1.800781-16.601563-.597657-24.601563-.800781-2.601562.597657-5.398437 3.199219-6.199218.398438-.199219 1-.199219 1.601562-.199219h30.796876c10.402343 0 18.800781 8.398437 18.601562 18.796875 0 10-8.398438 18.402344-18.800781 18.402344zm-23.800781-10h24c4.800781 0 8.800781-3.800782 8.800781-8.800782 0-4.800781-3.800781-8.800781-8.800781-8.800781h-24.398438c1 6 1.199219 11.800781.398438 17.601563zm0 0"/><path d="m436.601562 129.203125h-207.203124c-11 0-19.796876-8.800781-19.796876-19.800781v-15.800782c0-2.800781 2.199219-5 5-5 2.796876 0 5 2.199219 5 5v15.800782c0 5.398437 4.398438 9.800781 9.796876 9.800781h207c5.402343 0 9.800781-4.402344 9.800781-9.800781v-15.800782c0-2.800781 2.199219-5 5-5s5 2.199219 5 5v15.800782c.199219 11-8.800781 19.800781-19.597657 19.800781zm0 0"/><path d="m457.800781 101.800781h-249.601562c-2.800781 0-5-2.199219-5-5s2.199219-5 5-5h249.601562c2.800781 0 5 2.199219 5 5s-2.199219 5-5 5zm0 0"/><path d="m406.398438 145c-2.796876 0-5-2.199219-5-5v-43.199219c0-2.800781 2.203124-5 5-5 2.800781 0 5 2.199219 5 5v43.199219c0 2.800781-2.199219 5-5 5zm0 0"/><path d="m357 145c-2.800781 0-5-2.199219-5-5v-43.199219c0-2.800781 2.199219-5 5-5s5 2.199219 5 5v43.199219c0 2.800781-2.199219 5-5 5zm0 0"/><path d="m307.398438 145c-2.796876 0-5-2.199219-5-5v-43.199219c0-2.800781 2.203124-5 5-5 2.800781 0 5 2.199219 5 5v43.199219c0 2.800781-2.199219 5-5 5zm0 0"/><path d="m258 145c-2.800781 0-5-2.199219-5-5v-43.199219c0-2.800781 2.199219-5 5-5s5 2.199219 5 5v43.199219c0 2.800781-2.199219 5-5 5zm0 0"/><path d="m347 129.203125h-97.398438c-7.203124 0-13.203124-6-13.203124-13.203125v-77.199219c0-7.199219 6-13.199219 13.203124-13.199219h97.398438c7.199219 0 13.199219 6 13.199219 13.199219v77.199219c-.199219 7.203125-6 13.203125-13.199219 13.203125zm-97.398438-93.601563c-1.800781 0-3.203124 1.398438-3.203124 3.199219v77.199219c0 1.800781 1.402343 3.203125 3.203124 3.203125h97.398438c1.800781 0 3.199219-1.402344 3.199219-3.203125v-77.199219c0-1.800781-1.398438-3.199219-3.199219-3.199219zm0 0"/><path d="m415.398438 129.203125h-52c-7.199219 0-13.199219-6-13.199219-13.203125v-54c0-7.199219 6-13.199219 13.199219-13.199219h52c7.203124 0 13.203124 6 13.203124 13.199219v54c0 7.203125-6 13.203125-13.203124 13.203125zm-52.199219-70.402344c-1.800781 0-3.199219 1.402344-3.199219 3.199219v54c0 1.800781 1.398438 3.203125 3.199219 3.203125h52c1.800781 0 3.199219-1.402344 3.199219-3.203125v-54c0-1.796875-1.398438-3.199219-3.199219-3.199219zm0 0"/><path d="m329.601562 35.601562h-65c-2.800781 0-5-2.199218-5-5v-16.398437c0-7.800781 6.398438-14.203125 14.199219-14.203125h46.597657c7.800781 0 14.203124 6.402344 14.203124 14.203125v16.398437c0 2.800782-2.203124 5-5 5zm-60-10h55v-11.398437c0-2.402344-1.800781-4.203125-4.203124-4.203125h-46.597657c-2.199219 0-4.199219 1.800781-4.199219 4.203125zm0 0"/><path d="m403.800781 58.800781h-32.402343c-2.796876 0-5-2.199219-5-5v-41.800781c0-2.796875 2.203124-5 5-5h32.402343c2.800781 0 5 2.203125 5 5v41.800781c0 2.800781-2.199219 5-5 5zm-27.402343-10h22.402343v-31.800781h-22.402343zm0 0"/><path d="m408.398438 17h-41.796876c-2.800781 0-5-2.199219-5-5 0-2.796875 2.199219-5 5-5h41.796876c2.800781 0 5 2.203125 5 5 0 2.800781-2.199219 5-5 5zm0 0"/><path d="m395.199219 78.800781h-14.800781c-2.796876 0-5-2.199219-5-5s2.203124-5 5-5h14.800781c2.800781 0 5 2.199219 5 5s-2.199219 5-5 5zm0 0"/><path d="m43 275c-11.199219 0-19.800781-14.398438-19.800781-33.398438s8.402343-33.398437 19.800781-33.398437 19.800781 14.398437 19.800781 33.398437-8.601562 33.398438-19.800781 33.398438zm0-57c-4 0-9.800781 9.203125-9.800781 23.402344 0 14.199218 5.800781 23.398437 9.800781 23.398437s9.800781-9.199219 9.800781-23.398437c0-14.199219-5.800781-23.402344-9.800781-23.402344zm0 0"/><path d="m500.601562 291.800781c-14.402343 0-26-11.597656-26.203124-26 0-14.398437 11.601562-26 26-26.199219 2.800781 0 5 2.199219 5 5v42.199219c.203124 2.800781-2 5-4.796876 5zm-5-41.398437c-8.402343 2.800781-13 11.800781-10.402343 20.199218 1.601562 4.800782 5.402343 8.800782 10.402343 10.398438zm0 0"/><path d="m464.199219 193.601562-17.800781-24.398437c-5.597657-7.601563-14.199219-12-23.597657-12h-6.601562c-2.800781 0-5 2.199219-5 5v57c0 2.796875 2.199219 5 5 5h48.601562c2.800781 0 5-2.203125 5-5v-8.402344c0-6.199219-2-12.199219-5.601562-17.199219zm-4.398438 20.800782h-38.601562v-47h1.601562c6.199219 0 11.800781 3 15.597657 7.800781l17.800781 24.398437c2.402343 3.199219 3.800781 7.199219 3.800781 11.398438zm0 0"/><path d="m395.199219 224.203125h-97c-2.800781 0-5-2.203125-5-5v-57c0-2.800781 2.199219-5 5-5h97c2.800781 0 5 2.199219 5 5v57c0 2.796875-2.199219 5-5 5zm-92-10h87v-47h-87zm0 0"/><path d="m277 224.203125h-86.398438c-2.800781 0-5-2.203125-5-5 0-.203125 0-.402344 0-.601563 0-.398437 0-.800781 0-1.199218v-2.601563c0-6.398437-5.203124-11.597656-11.601562-11.597656h-1.601562c-2.796876 0-5-2.203125-5-5 0-1.402344.601562-2.800781 1.800781-3.800781l35.402343-29.601563c5.597657-4.800781 12.796876-7.398437 20.199219-7.398437h52.398438c2.800781 0 5 2.199218 5 5v57c-.199219 2.597656-2.398438 4.800781-5.199219 4.800781zm-81.398438-10h76.398438v-47h-47.398438c-5 0-9.800781 1.796875-13.800781 5l-27.601562 23c7.601562 3.796875 12.199219 11 12.402343 19zm0 0"/><path d="m174 239h-17.398438c-12 0-21.601562-9.597656-21.601562-21.597656v-2.601563c0-12 9.601562-21.597656 21.601562-21.597656h17.398438c12 0 21.601562 9.597656 21.601562 21.597656v2.601563c0 12-9.601562 21.597656-21.601562 21.597656zm-17.398438-35.796875c-6.402343 0-11.601562 5.199219-11.601562 11.597656v2.601563c0 6.398437 5.199219 11.597656 11.601562 11.597656h17.398438c6.398438 0 11.601562-5.199219 11.601562-11.597656v-2.601563c0-6.398437-5.203124-11.597656-11.601562-11.597656zm0 0"/><path d="m106.800781 354.601562c-16.402343 0-29.800781-13.398437-29.800781-29.800781 0-16.398437 13.398438-29.800781 29.800781-29.800781 16.398438 0 29.800781 13.402344 29.800781 29.800781 0 16.601563-13.402343 29.800781-29.800781 29.800781zm0-49.398437c-10.800781 0-19.800781 8.796875-19.800781 19.796875 0 10.800781 8.800781 19.800781 19.800781 19.800781s19.800781-8.800781 19.800781-19.800781-8.800781-19.796875-19.800781-19.796875zm0 0"/><path d="m414.800781 354.601562c-16.402343 0-29.800781-13.398437-29.800781-29.800781 0-16.398437 13.398438-29.800781 29.800781-29.800781 16.398438 0 29.800781 13.402344 29.800781 29.800781-.203124 16.601563-13.402343 29.800781-29.800781 29.800781zm0-49.398437c-10.800781 0-19.800781 8.796875-19.800781 19.796875s8.800781 19.800781 19.800781 19.800781 19.800781-8.800781 19.800781-19.800781c-.203124-11-9-19.796875-19.800781-19.796875zm0 0"/></svg>