<?xml version="1.0"?>
<svg xmlns="http://www.w3.org/2000/svg" viewBox="0 0 256 256" width="512" height="512"><path d="M209.4,73.146a8.369,8.369,0,0,1-12.06,2.67l-16.87,29.21a24.211,24.211,0,0,0-13.26-7.67l16.85-29.2a8.387,8.387,0,1,1,10.82-3.4,8.385,8.385,0,1,1,14.52,8.39Z" fill="#efefef"/><path d="M212.329,235.556l-1.91,11.559a5.123,5.123,0,0,1-5.06,4.29H50.619a5.123,5.123,0,0,1-5.06-4.29l-1.91-11.559Z" fill="#afafaf"/><path d="M60.7,67.436l-2.129-6.4a3.122,3.122,0,0,1,.783-3.222L101.384,16.76a7.262,7.262,0,0,0,.411-9.975,6.964,6.964,0,0,0-10.049-.079L50.485,48.944a3.124,3.124,0,0,1-3.223.783l-6.4-2.129a16.249,16.249,0,0,0-16.778,4.084L8.152,68.055a9.986,9.986,0,0,0,.1,14.025l17.33-17.716a4.365,4.365,0,1,1,6.217,6.128L17.223,85.167a4.179,4.179,0,0,0,5.911,5.91l14.675-14.57a4.364,4.364,0,1,1,6.127,6.217l-17.715,17.33a9.985,9.985,0,0,0,14.024.095L56.618,84.214A16.252,16.252,0,0,0,60.7,67.436Z" fill="#efefef"/><path d="M247.659,115.506a8.368,8.368,0,0,1-12.25-1.61l-25.79,21.79a24.547,24.547,0,0,0-9.9-11.85l25.84-21.681a8.381,8.381,0,1,1,11.32.5,8.387,8.387,0,0,1,10.78,12.851Z" fill="#efefef"/><path d="M196.97,173.93c1.69,7.33,2.48,15.05,1.49,22.24a14.585,14.585,0,0,0-17.28,6.48,14.585,14.585,0,0,0-26.12,12.82H108.12c5.27-5.27,4.65-12.15-.41-17.51,8.68-5.18,8.58-14.14,2.74-19.98a22.36,22.36,0,0,0-4.55-3.64c.93-8.73-3.38-16.41-9.85-17.31S83.33,162.33,81.84,171a21.841,21.841,0,0,0-5.33,2.24,23.191,23.191,0,0,0-5.38-3.25c-.27-9.15-5.81-16.46-12.62-16.48-6.531,0-10.939,6.217-12.31,13.07a20.322,20.322,0,0,0-9.14-11.04,70.68,70.68,0,0,1,67.5-38.09l25.7,1.7c7.43-16.47,23.49-24.59,36.95-21.79a24.161,24.161,0,0,1,13.26,7.67,28.394,28.394,0,0,1,6.79,14.79,27.624,27.624,0,0,1,12.46,4.02,24.5,24.5,0,0,1,9.9,11.85C215.13,149.55,207.7,166.16,196.97,173.93Z" fill="#f0c020"/><path d="M107.71,197.96c5.056,5.355,5.679,12.245.41,17.51H26.68c-4.84-4.44-4.91-10.8-1.4-16.48-11.28-3.919-12.727-15.462-3.12-24.48-2.8-8.73-.02-17.47,6.4-19.75a10.507,10.507,0,0,1,8.5.78,20.322,20.322,0,0,1,9.14,11.04c1.371-6.853,5.8-13.07,12.31-13.07,6.81.02,12.35,7.33,12.62,16.48a23.191,23.191,0,0,1,5.38,3.25A21.841,21.841,0,0,1,81.84,171c1.49-8.67,7.74-14.87,14.21-13.97s10.78,8.58,9.85,17.31a22.36,22.36,0,0,1,4.55,3.64C116.29,183.82,116.39,192.78,107.71,197.96Z" fill="#13bf6d"/><path d="M242.079,219.556l-2.86,8.809a10.4,10.4,0,0,1-9.9,7.191H26.659a10.4,10.4,0,0,1-9.9-7.191l-2.86-8.809a3.123,3.123,0,0,1,2.97-4.09h222.24A3.123,3.123,0,0,1,242.079,219.556Z" fill="#efefef"/><path d="M217.53,195.4a14.375,14.375,0,0,0-11.83,6.18,14.579,14.579,0,0,0-24.52,1.07,14.585,14.585,0,0,0-26.12,12.82h75.73A14.421,14.421,0,0,0,217.53,195.4Z" fill="#fc5d3d"/><path d="M173.027,207.521a5.1,5.1,0,0,0-4.458-2.625,2.5,2.5,0,0,1,0-5,10.106,10.106,0,0,1,8.829,5.2,2.5,2.5,0,1,1-4.371,2.428Z" fill="#ffcbc2"/><path d="M196.83,207.519a5.1,5.1,0,0,0-4.456-2.623,2.5,2.5,0,0,1,0-5,10.107,10.107,0,0,1,8.826,5.192,2.5,2.5,0,0,1-4.37,2.431Z" fill="#ffcbc2"/><path d="M220.633,207.516a5.1,5.1,0,0,0-4.454-2.62,2.5,2.5,0,0,1,0-5A10.108,10.108,0,0,1,225,205.083a2.5,2.5,0,1,1-4.368,2.433Z" fill="#ffcbc2"/><path d="M61.059,143.847a2.5,2.5,0,0,1,.376-3.516,61.43,61.43,0,0,1,42.5-13.406l12.215.807a2.5,2.5,0,1,1-.33,4.989l-12.215-.807a56.376,56.376,0,0,0-39.028,12.309A2.5,2.5,0,0,1,61.059,143.847Zm70.691-10.072-5.954-.394a2.5,2.5,0,0,1,.33-4.989l5.954.393a2.5,2.5,0,1,1-.33,4.99Z" fill="#f9e5af"/><path d="M172.653,171.7a2.5,2.5,0,0,1,2.223-2.75c13.439-1.421,22.278-12.262,23.06-21.922a2.5,2.5,0,0,1,4.984.4c-.947,11.692-11.5,24.8-27.517,26.492A2.5,2.5,0,0,1,172.653,171.7Zm23.553-32.768a11.081,11.081,0,0,0-.953-1.319,2.5,2.5,0,1,1,3.825-3.221,16.1,16.1,0,0,1,1.387,1.921,2.5,2.5,0,0,1-4.259,2.619Z" fill="#f9e5af"/><path d="M174.339,85a2.5,2.5,0,1,0,2.5-4.33,2.555,2.555,0,0,0-3.41.91A2.5,2.5,0,0,0,174.339,85Z"/><path d="M30.015,66.1a1.868,1.868,0,0,1,0,2.633L15.45,83.405A6.679,6.679,0,0,0,24.9,92.851L39.57,78.28a1.865,1.865,0,1,1,2.618,2.657L24.472,98.266a2.5,2.5,0,0,0-.019,3.555,12.534,12.534,0,0,0,17.536.119L58.362,86.005a18.855,18.855,0,0,0,4.713-19.358l-2.129-6.4A.627.627,0,0,1,61.1,59.6L103.129,18.55a9.774,9.774,0,0,0,.482-13.483,9.445,9.445,0,0,0-13.653-.108L48.7,47.2a.625.625,0,0,1-.643.156l-6.4-2.13A18.854,18.854,0,0,0,22.3,49.939L6.361,66.311a12.535,12.535,0,0,0,.118,17.536,2.51,2.51,0,0,0,3.555-.019l17.33-17.715A1.863,1.863,0,0,1,30.015,66.1ZM8.539,78.206A7.52,7.52,0,0,1,9.944,69.8L25.879,53.426a13.832,13.832,0,0,1,14.2-3.457l6.4,2.13a5.657,5.657,0,0,0,5.8-1.408L93.536,8.451a4.465,4.465,0,0,1,6.443.052,4.756,4.756,0,0,1-.342,6.469L57.612,56.026a5.657,5.657,0,0,0-1.411,5.8l2.13,6.4a13.828,13.828,0,0,1-3.456,14.2L38.5,98.357a7.522,7.522,0,0,1-8.408,1.405l15.59-15.251a6.864,6.864,0,1,0-9.636-9.778L21.372,89.3A1.679,1.679,0,0,1,19,86.928L33.568,72.253a6.865,6.865,0,1,0-9.779-9.637Z"/><path d="M76.459,61.372a2.5,2.5,0,0,0,3.535,3.535,14.092,14.092,0,0,1,23.391,5.735A19.02,19.02,0,0,0,90.59,76.9a8.6,8.6,0,0,0,12.144,12.137,19.027,19.027,0,0,0,6.254-12.792,14.1,14.1,0,0,1,5.734,23.391,2.5,2.5,0,1,0,3.535,3.536,19.109,19.109,0,0,0-9.619-32.18A19.1,19.1,0,0,0,76.459,61.372ZM99.381,85.327a3.606,3.606,0,0,1-5.077-5.08,14.038,14.038,0,0,1,9.712-4.634A14.042,14.042,0,0,1,99.381,85.327Z"/><path d="M105.089,117.486a2.5,2.5,0,1,0,2.66-2.341A2.5,2.5,0,0,0,105.089,117.486Z"/><path d="M250.607,102.091A10.853,10.853,0,0,0,242.2,98.2a10.889,10.889,0,1,0-20.08,3.577l-22.662,19.014a29.783,29.783,0,0,0-10.084-3.258,30.858,30.858,0,0,0-5.862-12.766l14.8-25.625a10.89,10.89,0,1,0,.04-20.4,10.89,10.89,0,1,0-17.65,10.23l-2.28,3.94a2.518,2.518,0,0,0,.92,3.42,2.58,2.58,0,0,0,3.42-.92l3.46-6.01a2.5,2.5,0,0,0-1.09-3.51,5.885,5.885,0,1,1,7.58-2.389,2.356,2.356,0,0,0,.838,3.361,2.486,2.486,0,0,0,3.532-.912,5.88,5.88,0,1,1,1.74,7.85,2.5,2.5,0,0,0-3.65.761l-15.25,26.409a27.768,27.768,0,0,0-8.94-5.159l1.78-3.08a2.512,2.512,0,0,0-.92-3.411,2.556,2.556,0,0,0-3.41.911L165.91,94.6c-13.767-2-29.388,6.341-37.172,21.939l-11.009-.727a2.5,2.5,0,1,0-.33,4.989l.01-.009c16.235,1.073,26.129.853,40.038,7.5-13.507,12.433-17.889,32.988-6.543,46.5,10.265,12.227,29.14,13.483,44.4,3.425a59.89,59.89,0,0,1,.97,14.857,17.15,17.15,0,0,0-15.089,5.387,17.076,17.076,0,0,0-29.426,14.5H112.969c2.135-4.412,1.714-9.768-1.62-14.5a18.31,18.31,0,0,0,2.06-1.951,2.5,2.5,0,0,0-.2-3.529,2.566,2.566,0,0,0-3.53.2,14.127,14.127,0,0,1-3.284,2.646,2.519,2.519,0,0,0-.506,3.845c3.816,4.038,4.75,9.068,1.143,13.29H93.138l.393-4.52,6.929-5.044a2.5,2.5,0,1,0-2.942-4.042l-3.412,2.483L95.137,190l7.13-5.641a2.5,2.5,0,0,0-3.1-3.921l-3.431,2.715,1.247-14.33A2.5,2.5,0,0,0,92,168.385l-3.879,44.581h-6.37c4.214-6.068,3.489-13.332-1.7-18.852,5.885-6.2,5.777-14.417.761-20.15.561-.208,1.138-.4,1.7-.559a2.5,2.5,0,0,0,1.79-1.99c1.374-7.885,6.774-12.579,11.4-11.909,5.656.774,8.421,8.267,7.71,14.569a2.572,2.572,0,0,0,1.18,2.391,20.885,20.885,0,0,1,3.28,2.48,2.5,2.5,0,1,0,3.41-3.661,24.546,24.546,0,0,0-2.78-2.229c.381-8.411-3.985-17.37-12.11-18.51-8.266-1.1-14.779,6.368-16.7,14.5a29.083,29.083,0,0,0-2.96,1.23,27.525,27.525,0,0,0-3.193-1.919c-.875-9.755-7.225-17.329-15.027-17.351-5.7,0-10.268,3.973-12.813,9.13a22.01,22.01,0,0,0-5.317-5.481,68.606,68.606,0,0,1,57.29-34.839,2.5,2.5,0,0,0,2.42-2.571,2.45,2.45,0,0,0-2.57-2.42,73.171,73.171,0,0,0-61.593,37.568,12.534,12.534,0,0,0-8.2.007c-7.31,2.6-10.824,11.8-8.375,21.372-9.306,9.715-7.455,21.382,2.46,26.448a14.91,14.91,0,0,0-.094,12.746H16.869a5.628,5.628,0,0,0-5.348,7.362l2.86,8.808a12.869,12.869,0,0,0,12.278,8.92H41.528l1.565,9.467a7.6,7.6,0,0,0,7.526,6.382h154.74a7.6,7.6,0,0,0,7.527-6.382l1.564-9.467h14.869a12.87,12.87,0,0,0,12.278-8.919l2.858-8.805a5.627,5.627,0,0,0-5.346-7.366h-4.965a16.911,16.911,0,0,0-28.459-15.228,16.879,16.879,0,0,0-4.554-3.168,64.619,64.619,0,0,0-1.38-19.631c10.288-8.29,17.446-24.21,12.805-38.462l22.628-19.118a10.888,10.888,0,0,0,15.423-15.268ZM134.2,116.911c13.489-23.793,43.836-23.042,49.971.3a40.294,40.294,0,0,0-22.46,7.613A73.38,73.38,0,0,0,134.2,116.911ZM168.569,197.9a12.089,12.089,0,0,1,11.705,15.07H156.859A12.093,12.093,0,0,1,168.569,197.9ZM46.825,172.238a2.5,2.5,0,0,0,1.5-2.2c.238-6.536,3.412-13.244,10.175-14.031,6.116.018,9.893,7.468,10.121,13.935a2.584,2.584,0,0,0,1.5,2.334c9.895,4.339,12.806,13.384,4.675,19.877a2.5,2.5,0,0,0-.01,3.9c6.1,4.917,6.387,11.781.148,16.914h-14v-3.79l8.622-7.959a2.5,2.5,0,1,0-3.392-3.673l-5.23,4.827V189.387l8.8-9.978a2.5,2.5,0,0,0-3.75-3.307l-5.051,5.726V167.672a2.5,2.5,0,0,0-5,0v14.573L50.064,176.8a2.5,2.5,0,1,0-3.4,3.666l9.274,8.6v13.209l-5.891-5.365a2.5,2.5,0,0,0-3.366,3.7l9.257,8.431v3.931h-14c-6.225-5.105-6.03-12.024.144-16.969a2.5,2.5,0,0,0,0-3.9C34.049,185.64,36.778,176.6,46.825,172.238Zm-22.955,4.09a2.5,2.5,0,0,0,.669-2.586c-2.366-7.379-.188-14.839,4.859-16.631,5.817-2.073,11.843,3.779,14.214,9.747-.056.371-.127.941-.175,1.445a24.345,24.345,0,0,0-5.18,3.448l-3.1-6.457a2.5,2.5,0,0,0-4.506,2.166l4.053,8.431a14.448,14.448,0,0,0-2.288,8.412l-5.791-.7a2.5,2.5,0,0,0-.6,4.964l7.674.922a16.877,16.877,0,0,0,3.132,4.554c-5.516,5.827-5.745,13.163-1.715,18.919H27.709c-3.328-3.616-2.915-8.434-.3-12.667a2.5,2.5,0,0,0-1.308-3.675C16.6,193.323,15.648,184.046,23.87,176.328Zm184.083,70.38a2.62,2.62,0,0,1-2.594,2.2H50.619a2.618,2.618,0,0,1-2.593-2.2l-1.43-8.652H209.382Zm31.156-28.742a.62.62,0,0,1,.593.814v0l-2.86,8.811a7.882,7.882,0,0,1-7.522,5.461H26.659a7.883,7.883,0,0,1-7.522-5.463l-2.861-8.813a.62.62,0,0,1,.593-.814Zm-21.58-20.07a11.934,11.934,0,0,1,11.5,15.07h-18.41a17.068,17.068,0,0,0-1.861-11.215A11.913,11.913,0,0,1,217.529,197.9Zm-12.038,15.07H185.4a17.3,17.3,0,0,0-1.326-10.179,12.119,12.119,0,0,1,13.577-4.252.286.286,0,0,0,.028.007A12.08,12.08,0,0,1,205.491,212.966Zm-10.043-41.024c-15.57,11.893-32.509,9.411-40.714-.364-10.168-12.108-4.949-31.407,8.722-41.823,12.576-9.7,30.6-10.647,40.183.746C213.878,142.675,208.4,162,195.448,171.942Zm50.607-58.354,0,0a5.859,5.859,0,0,1-8.6-1.131,2.5,2.5,0,0,0-3.659-.474l-23.309,19.693a28.066,28.066,0,0,0-6.689-8l23.368-19.606a2.5,2.5,0,0,0,.16-3.683,5.881,5.881,0,1,1,7.949.35,2.5,2.5,0,0,0,3.208,3.835,5.887,5.887,0,0,1,7.572,9.015Z"/><path d="M111.979,186a2.5,2.5,0,0,0,4.95-.739l-.01-.011a2.526,2.526,0,0,0-2.83-2.09A2.492,2.492,0,0,0,111.979,186Z"/></svg>
