<?xml version="1.0" encoding="utf-8"?>
<!-- Generator: Adobe Illustrator 22.0.0, SVG Export Plug-In . SVG Version: 6.00 Build 0)  -->
<svg xmlns="http://www.w3.org/2000/svg" xmlns:xlink="http://www.w3.org/1999/xlink" version="1.1" id="Layer_1" x="0px" y="0px" viewBox="0 0 64 64" style="enable-background:new 0 0 64 64;" xml:space="preserve" width="512" height="512">
<style type="text/css">
	.st0{fill:#263238;}
	.st1{fill:#4DB6AC;}
	.st2{fill:#FFD740;}
	.st3{fill:#4FC3F7;}
	.st4{fill:#FF5252;}
	.st5{fill:#FFFFFF;}
</style>
<g>
	<g>
		<path class="st0" d="M26,31c-0.276,0-0.5-0.224-0.5-0.5v-8.706c0-0.276,0.224-0.5,0.5-0.5s0.5,0.224,0.5,0.5V30.5    C26.5,30.777,26.277,31,26,31z"/>
	</g>
	<g>
		<path class="st0" d="M18.735,32.095c-0.167,0-0.33-0.083-0.424-0.235l-3.785-6.048c-0.146-0.234-0.076-0.542,0.159-0.689    c0.233-0.147,0.542-0.077,0.689,0.159l3.785,6.048c0.146,0.234,0.076,0.542-0.159,0.689    C18.917,32.071,18.826,32.095,18.735,32.095z"/>
	</g>
	<g>
		<path class="st0" d="M38,31c-0.276,0-0.5-0.224-0.5-0.5v-8.706c0-0.276,0.224-0.5,0.5-0.5s0.5,0.224,0.5,0.5V30.5    C38.5,30.777,38.277,31,38,31z"/>
	</g>
	<g>
		<path class="st0" d="M32,42c-2.481,0-4.5-2.019-4.5-4.5S29.519,33,32,33s4.5,2.019,4.5,4.5S34.482,42,32,42z M32,34    c-1.93,0-3.5,1.57-3.5,3.5S30.071,41,32,41s3.5-1.57,3.5-3.5S33.93,34,32,34z"/>
	</g>
	<g>
		<path class="st0" d="M36,51.5h-8c-0.276,0-0.5-0.224-0.5-0.5v-6.45l-5.721-9.644c-0.562-0.948-0.249-2.177,0.699-2.74    c0.95-0.561,2.179-0.248,2.741,0.699L30.046,41h3.909l4.825-8.135c0.563-0.948,1.792-1.262,2.741-0.7c0,0,0,0,0,0    c0.948,0.563,1.262,1.792,0.699,2.74L36.5,44.55V51C36.5,51.276,36.277,51.5,36,51.5z M28.5,50.5h7v-6.087    c0-0.09,0.024-0.178,0.07-0.255l5.79-9.762c0.281-0.474,0.125-1.089-0.349-1.371c-0.475-0.28-1.089-0.124-1.371,0.35l-4.97,8.38    C34.58,41.907,34.417,42,34.24,42h-4.479c-0.177,0-0.34-0.093-0.43-0.245l-4.971-8.38c-0.281-0.473-0.896-0.629-1.371-0.349    c-0.474,0.281-0.63,0.896-0.349,1.371l5.791,9.762c0.046,0.077,0.07,0.165,0.07,0.255V50.5z"/>
	</g>
	<g>
		<path class="st0" d="M38,64L38,64c-1.654,0-3-1.346-3-3v-2.5c0-1.103-0.897-2-2-2h-2.5c-1.654,0-3-1.346-3-3V51    c0-0.276,0.224-0.5,0.5-0.5h5c4.411,0,8,3.589,8,8V61C41,62.655,39.655,64,38,64z M28.5,51.5v2c0,1.103,0.897,2,2,2H33    c1.654,0,3,1.346,3,3V61c0,1.103,0.897,2,2,2c1.103,0,2-0.897,2-2v-2.5c0-3.86-3.14-7-7-7H28.5z"/>
	</g>
	<g>
		<path class="st0" d="M43,64c-1.654,0-3-1.346-3-3v-2.5c0-3.86-3.14-7-7-7c-0.276,0-0.5-0.224-0.5-0.5c0-0.276,0.224-0.5,0.5-0.5    l0,0l5,0c4.411,0,8,3.589,8,8V61C46,62.655,44.655,64,43,64z M36.871,51.5c2.461,1.366,4.13,3.992,4.13,7V61c0,1.103,0.897,2,2,2    s2-0.897,2-2v-2.5c0-3.86-3.14-7-7-7H36.871z"/>
	</g>
	<g>
		<path class="st1" d="M8.005,23.435c1.28,2.568,4.43,3.495,6.944,2.112c4.999-2.751,10.885-4.23,17.051-4.23    c6.167,0,12.052,1.479,17.052,4.229c2.513,1.383,5.664,0.455,6.944-2.112l5.273-10.579c1.266-2.54,0.175-5.641-2.418-6.796    C50.71,2.431,41.539,0.5,32,0.5c-9.538,0-18.709,1.931-26.85,5.559c-2.593,1.155-3.685,4.256-2.418,6.797L8.005,23.435z"/>
		<path class="st0" d="M12.48,26.69c-0.558,0-1.117-0.084-1.665-0.256c-1.431-0.447-2.588-1.433-3.258-2.776L2.285,13.079    c-0.678-1.36-0.769-2.897-0.255-4.328c0.509-1.419,1.545-2.537,2.917-3.148C13.171,1.938,22.526,0,32,0    c9.475,0,18.83,1.938,27.054,5.603c1.372,0.611,2.408,1.729,2.917,3.149c0.514,1.431,0.423,2.967-0.255,4.327l-5.273,10.579    c-0.669,1.343-1.827,2.329-3.258,2.776c-1.463,0.457-3.017,0.298-4.375-0.45c-4.956-2.727-10.769-4.167-16.81-4.167    s-11.854,1.441-16.81,4.168C14.34,26.453,13.414,26.69,12.48,26.69z M32,1C22.666,1,13.451,2.907,5.354,6.516    c-1.121,0.5-1.967,1.413-2.383,2.573c-0.421,1.172-0.347,2.431,0.208,3.544l5.273,10.579l0,0C9,24.309,9.945,25.115,11.114,25.48    c1.2,0.373,2.477,0.243,3.594-0.371c5.104-2.808,11.083-4.292,17.292-4.292s12.189,1.484,17.292,4.292    c1.116,0.614,2.393,0.747,3.594,0.371c1.169-0.365,2.114-1.171,2.662-2.268l5.273-10.579c0.555-1.113,0.628-2.372,0.208-3.543    c-0.416-1.16-1.262-2.074-2.383-2.574C50.55,2.907,41.336,1,32,1z"/>
	</g>
	<g>
		<path class="st0" d="M45.266,32.096c-0.091,0-0.182-0.024-0.265-0.076c-0.234-0.146-0.305-0.455-0.159-0.689l3.785-6.049    c0.146-0.234,0.456-0.304,0.689-0.159c0.234,0.146,0.305,0.455,0.159,0.689l-3.785,6.049    C45.596,32.013,45.433,32.096,45.266,32.096z"/>
	</g>
	<g>
		<path class="st2" d="M18.51,23.873c4.146-1.666,8.732-2.556,13.49-2.556c4.759,0,9.345,0.89,13.49,2.556l6.767-20.302    C45.882,1.56,39.043,0.5,32,0.5c-7.042,0-13.882,1.06-20.257,3.071L18.51,23.873z"/>
		<path class="st0" d="M18.51,24.373c-0.072,0-0.144-0.016-0.21-0.046c-0.125-0.058-0.221-0.165-0.264-0.295L11.269,3.729    c-0.042-0.127-0.032-0.266,0.029-0.385c0.061-0.12,0.167-0.209,0.295-0.25C18.1,1.041,24.966,0,32,0    c7.034,0,13.9,1.041,20.408,3.094c0.128,0.041,0.234,0.13,0.295,0.25c0.061,0.119,0.071,0.258,0.029,0.385l-6.767,20.302    c-0.043,0.131-0.139,0.238-0.264,0.295c-0.125,0.058-0.268,0.061-0.396,0.01c-4.16-1.672-8.636-2.52-13.304-2.52    c-4.667,0-9.143,0.848-13.304,2.52C18.637,24.36,18.573,24.373,18.51,24.373z M12.379,3.897l6.439,19.317    c4.139-1.591,8.571-2.397,13.183-2.397c4.612,0,9.044,0.806,13.183,2.397l6.439-19.318C45.356,1.975,38.757,1,32,1    C25.243,1,18.645,1.975,12.379,3.897z"/>
	</g>
	<g>
		<path class="st1" d="M27.644,21.579c1.431-0.167,2.884-0.262,4.356-0.262c1.472,0,2.925,0.095,4.356,0.262l2.874-20.694    C36.851,0.636,34.439,0.5,32,0.5s-4.851,0.136-7.23,0.385L27.644,21.579z"/>
		<path class="st0" d="M36.357,22.079c-0.019,0-0.039-0.001-0.059-0.003c-2.943-0.344-5.652-0.344-8.596,0    c-0.28,0.031-0.516-0.159-0.553-0.428L24.275,0.954c-0.019-0.134,0.018-0.271,0.102-0.377c0.083-0.107,0.207-0.175,0.341-0.189    c4.91-0.516,9.656-0.516,14.565,0c0.135,0.014,0.258,0.082,0.341,0.189c0.083,0.106,0.12,0.243,0.102,0.377l-2.874,20.694    C36.817,21.897,36.603,22.079,36.357,22.079z M25.336,1.331l2.736,19.698c2.687-0.281,5.17-0.281,7.856,0l2.736-19.698    C34.169,0.892,29.833,0.892,25.336,1.331z"/>
	</g>
	<g>
		<path class="st3" d="M53.492,52.009c-0.005-1.105,0.887-2.004,1.991-2.009c1.105-0.005,2.004,0.887,2.009,1.991    c1.105-0.005,2.004,0.886,2.009,1.991c0.005,1.105-0.887,2.004-1.991,2.009l-4,0.018c-1.105,0.005-2.004-0.887-2.009-1.991    C51.496,52.914,52.387,52.014,53.492,52.009z"/>
	</g>
	<g>
		<path class="st0" d="M62,41.5h-2c-0.276,0-0.5-0.224-0.5-0.5s0.224-0.5,0.5-0.5h2c0.276,0,0.5,0.224,0.5,0.5S62.277,41.5,62,41.5z    "/>
	</g>
	<g>
		<path class="st0" d="M58,41.5H45.5c-0.276,0-0.5-0.224-0.5-0.5s0.224-0.5,0.5-0.5H58c0.276,0,0.5,0.224,0.5,0.5    S58.277,41.5,58,41.5z"/>
	</g>
	<g>
		<path class="st0" d="M4,56.5H2c-0.276,0-0.5-0.224-0.5-0.5s0.224-0.5,0.5-0.5h2c0.276,0,0.5,0.224,0.5,0.5S4.277,56.5,4,56.5z"/>
	</g>
	<g>
		<path class="st0" d="M18.5,56.5H6c-0.276,0-0.5-0.224-0.5-0.5s0.224-0.5,0.5-0.5h12.5c0.276,0,0.5,0.224,0.5,0.5    S18.777,56.5,18.5,56.5z"/>
	</g>
	<g>
		<path class="st3" d="M5,38.491c0-1.657,1.343-3,3-3s3,1.343,3,3c1.657,0,3,1.343,3,3s-1.343,3-3,3H5c-1.657,0-3-1.343-3-3    S3.344,38.491,5,38.491z"/>
	</g>
</g>
</svg>
